<svg xmlns="http://www.w3.org/2000/svg" aria-hidden="true" style="position:absolute;width:0;height:0;overflow:hidden">
    <defs>
        <symbol id="about-mark" viewBox="0 0 32 32">
            <path fill="#219717"
                d="m4.656 16.586-2.77-1.737 1.601.369 2.332.848 2.596.781 1.384.609c.62.273 1.208.614 1.754 1.016l.237.175a7.553 7.553 0 0 1 1.875 2.005l.141.22a5.996 5.996 0 0 1 .887 4.079l-.072.505-.438.601-.758-.862-1.141-1.55a1.694 1.694 0 0 0-.156-.183l-2.284-2.31-2.384-2.225-2.803-2.34z"
                style="fill:var(--color1, #219717)" />
            <path fill="#10550a"
                d="m1.886 14.849 2.77 1.737 2.803 2.34 2.384 2.225 2.284 2.31c.056.057.108.118.156.183l1.141 1.55.758.862-.438.601-.288.063a4.604 4.604 0 0 1-4.48-1.506l-.939-1.099-.397-.596a13.873 13.873 0 0 1-1.258-2.348 13.869 13.869 0 0 0-.958-1.877l-.036-.059a14.816 14.816 0 0 0-1.385-1.91l-2.116-2.476z"
                style="fill:var(--color2, #10550a)" />
            <path fill="none" stroke="#000" stroke-linecap="round" stroke-linejoin="round" stroke-width=".346"
                d="m15.225 28.391-1.044-2.334m0 0-.758-.862m.758.862.438-.601m-.438.601-.438.601m-3.9-5.506.169.171m-.169-.171-1.864-.301m1.864.301-1.942-1.813m-6.015-4.49 2.77 1.737 1.775 1.482m-4.545-3.219 2.116 2.476c.512.599.975 1.238 1.385 1.91l.036.059c.366.601.687 1.228.958 1.877v0c.343.821.765 1.608 1.258 2.348l.397.596.939 1.099a4.604 4.604 0 0 0 2.107 1.397v0a4.606 4.606 0 0 0 2.373.109l.288-.063M1.886 14.849l1.601.369 2.332.848 2.596.781 1.384.609c.62.273 1.208.614 1.754 1.016l.237.175a7.553 7.553 0 0 1 1.875 2.005l.141.22c.36.562.623 1.181.78 1.83v0c.177.736.214 1.499.107 2.249l-.072.505m-.877 1.201.875-1.202m-.747-2.222-.448 1.961m0 .001-1.141-1.55a1.694 1.694 0 0 0-.156-.183v0m1.297 1.733-2.327-.695m1.089-3.615-.06 2.577m.001 0-.085-.086m-2.612-.451 2.612.451m0 0-2.03-2.054m.058-1.785-.058 1.786m-2.077-3.908L7.9 19.339m0 0-.441-.412-1.028-.858m1.469 1.27-1.931-.086m.301-2.309.161 1.125m0 0-1.196-.24"
                style="stroke:var(--color3, #000)" />
            <path fill="#10550a"
                d="M29.648 5.29 26.34 8.607l-3.16 4.169-2.611 3.874-2.445 3.961c-.06.098-.113.2-.159.305l-1.846 4.273.776.405.423-.005a6.592 6.592 0 0 0 5.771-3.544l.957-1.837.363-.96a19.913 19.913 0 0 0 1.001-3.684c.17-.994.415-1.973.733-2.929l.031-.094a21.126 21.126 0 0 1 1.319-3.112l2.157-4.138z"
                style="fill:var(--color2, #10550a)" />
            <path fill="#219717"
                d="m26.34 8.607 3.308-3.317-2.116 1.03-2.983 1.935-3.373 1.926-1.736 1.295a13.151 13.151 0 0 0-2.121 1.983l-.274.32a10.828 10.828 0 0 0-2.601 6.936c-.008.841.082 1.681.268 2.502l.318 1.404 1.087.567 1.846-4.273c.046-.105.099-.207.159-.305l2.445-3.961 2.611-3.874 3.16-4.169z"
                style="fill:var(--color1, #219717)" />
            <path fill="none" stroke="#000" stroke-linecap="round" stroke-linejoin="round" stroke-width=".346"
                d="m15.384 28.49.734-3.301m-.001 0 .752-1.741m-.752 1.741.776.405m-.776-.405-1.087-.567m5.538-7.972-.181.293m.181-.293 2.506-1.02m-2.506 1.02 2.128-3.156m6.952-8.204L26.34 8.607l-2.002 2.641m5.31-5.958-2.157 4.138a21.217 21.217 0 0 0-1.319 3.112l-.031.094a19.948 19.948 0 0 0-.733 2.929v0a19.913 19.913 0 0 1-1.001 3.684l-.363.96-.957 1.837a6.592 6.592 0 0 1-2.492 2.628v0a6.593 6.593 0 0 1-3.279.916l-.423.005M29.648 5.29l-2.116 1.03-2.983 1.935-3.373 1.926-1.736 1.295a13.151 13.151 0 0 0-2.121 1.983l-.274.32a10.815 10.815 0 0 0-1.972 3.403v0a10.828 10.828 0 0 0-.629 3.533v0c-.008.841.082 1.681.268 2.502l.318 1.404m1.864.972-1.863-.971m.582-3.768 1.257 2.594m0 0 1.094-2.532c.046-.105.099-.207.159-.305v0m-1.253 2.837 3.025-1.719m-2.685-4.696.913 3.578m0 0 .091-.147m3.502-1.47-3.502 1.471m-.001-.001 2.174-3.521m-.656-2.474.656 2.475m1.641-6.125.668 2.675m0 0 .484-.717 1.159-1.529m-1.643 2.246 2.668-.742m-1.162-3.127.137 1.622m-.001.001 1.593-.721"
                style="stroke:var(--color3, #000)" />
        </symbol>
        <symbol id="advan-icon1" viewBox="0 0 17 32">
            <path fill="#10550a"
                d="M3.388 18.635v-.696c0-.404-.126-.798-.361-1.127l-.358-.501a.742.742 0 0 0-1.198-.014l-.039.052a.875.875 0 0 0-.104.868l.201.469a1.568 1.568 0 0 0 1.44.949h.419z"
                style="fill:var(--color2, #10550a)" />
            <path fill="#219717"
                d="m4.518 12.047.32-.64c.161-.322.244-.676.244-1.036V9.72a.745.745 0 0 0-1.02-.691l-.075.03a.864.864 0 0 0-.518.594l-.071.285a1.44 1.44 0 0 0 .379 1.368l.741.741z"
                style="fill:var(--color1, #219717)" />
            <path fill="#10550a"
                d="m6.965 7.341.29-.508c.291-.51.327-1.127.095-1.667l-.11-.256a.826.826 0 0 0-.265-.337l-.06-.045a.741.741 0 0 0-1.166.774l.151.603c.081.324.248.619.484.855l.581.581z"
                style="fill:var(--color2, #10550a)" />
            <path fill="#219717"
                d="m9.788 6.4.633-.422a1.85 1.85 0 0 0 .705-.889l.183-.487a.9.9 0 0 0-.841-1.213.9.9 0 0 0-.866.653l-.095.333a1.362 1.362 0 0 0-.02.668L9.789 6.4zM14.341 5.671c-.261.224-.411.55-.411.894v1.717c.594 0 1.16-.273 1.531-.737.108-.135.198-.284.266-.443l.244-.57a.904.904 0 0 0-1.418-1.042l-.211.181z"
                style="fill:var(--color1, #219717)" />
            <path fill="#10550a"
                d="m14.306 14.682.38-.152a2.39 2.39 0 0 0 .949-.689l.386-.463a.724.724 0 0 0-.288-1.137l-.041-.017a.79.79 0 0 0-.808.134l-.503.431a1.295 1.295 0 0 0-.451.982c0 .341.135.669.376.91z"
                style="fill:var(--color2, #10550a)" />
            <path fill="#219717"
                d="M12.8 21.082c.477 0 .93-.212 1.235-.578l.235-.282a.967.967 0 0 0 .224-.619v-.332a.634.634 0 0 0-1.132-.397l-.396.494a1.51 1.51 0 0 0-.251.461l-.124.371a.862.862 0 0 0 .208.882z"
                style="fill:var(--color1, #219717)" />
            <path fill="none" stroke="#000" stroke-linecap="round" stroke-width=".377"
                d="M8.847 28.988v0a10.499 10.499 0 0 1-.941-4.329v0m0 0h.537a4.16 4.16 0 0 0 2.939-1.217v0c.316-.316.579-.681.778-1.08l.64-1.279m-4.894 3.576v-3.012m4.894-.565v0c.477 0 .93-.212 1.235-.578l.235-.282a.967.967 0 0 0 .224-.619v-.332a.636.636 0 0 0-.636-.636v0a.634.634 0 0 0-.496.239l-.396.494a1.51 1.51 0 0 0-.251.461l-.124.371a.862.862 0 0 0 .208.882v0zm-4.894.565h-.602a3.824 3.824 0 0 1-1.712-.404v0a3.832 3.832 0 0 1-1.649-1.591l-.554-1.016m4.517 3.011.376-3.012m-4.894 0v-.696c0-.404-.126-.798-.361-1.127l-.358-.501A.742.742 0 0 0 2.065 16v0a.742.742 0 0 0-.594.297l-.039.052a.875.875 0 0 0-.104.868l.201.469c.108.252.281.472.5.636v0c.271.203.601.313.94.313h.419zm4.894 0v0c1.22 0 2.405-.407 3.368-1.156l.704-.548a7.665 7.665 0 0 0 1.951-2.249v0m-6.023 3.953v-1.882m6.024-2.071.38-.152a2.39 2.39 0 0 0 .949-.689l.386-.463a.726.726 0 0 0 .168-.464v0a.724.724 0 0 0-.456-.673l-.041-.017a.79.79 0 0 0-.808.134l-.503.431a1.295 1.295 0 0 0-.451.982v0c0 .341.135.669.376.91v0zm-6.024 2.071-1.318-1.129-.62-.62a7.562 7.562 0 0 1-1.827-2.957v0m3.765 4.706.565-3.012m-4.329-1.694.32-.64c.161-.322.244-.676.244-1.036V9.72a.743.743 0 0 0-.218-.526v0a.745.745 0 0 0-.802-.165l-.075.03a.864.864 0 0 0-.518.594l-.071.285a1.44 1.44 0 0 0 .379 1.368l.741.741zm4.329 1.694 1.411-.907a8.528 8.528 0 0 0 2.118-1.936v0c.282-.363.534-.748.755-1.151l.799-1.464m-5.083 5.458.565-3.012m4.517-2.447V6.565c0-.344.15-.67.411-.894l.211-.181a.903.903 0 0 1 1.282.108v0c.218.261.27.622.136.934l-.244.57a1.917 1.917 0 0 1-.266.443v0a1.966 1.966 0 0 1-1.531.737v0zm-4.517 2.447-.383-.383a9.986 9.986 0 0 1-2.064-3.005v0m2.447 3.388L9.788 6.4m-2.823.941.29-.508c.291-.51.327-1.127.095-1.667l-.11-.256a.826.826 0 0 0-.265-.337l-.06-.045a.743.743 0 0 0-.971.069v0a.741.741 0 0 0-.195.705l.151.603c.081.324.248.619.484.855l.581.581zM9.788 6.4l.633-.422a1.85 1.85 0 0 0 .705-.889l.183-.487a.899.899 0 0 0-.122-.854v0a.9.9 0 0 0-.719-.359v0a.9.9 0 0 0-.866.653l-.095.333a1.362 1.362 0 0 0-.02.668L9.789 6.4z"
                style="stroke:var(--color3, #000)" />
        </symbol>
        <symbol id="advan-icon2" viewBox="0 0 17 32">
            <path fill="#10550a"
                d="m9.224 17.882.33.412a1.407 1.407 0 0 0 1.92.266l.588-.42c.241-.172.46-.372.652-.597l.287-.335a5.132 5.132 0 0 0 1.222-3.703l-.048-.673a8.035 8.035 0 0 0-.264-1.547l-.357-1.31-.129-.901c-.018-.128-.19-.155-.248-.04l-.376.941a21.282 21.282 0 0 1-2.233 3.544l-.026.033-.479.766a5.542 5.542 0 0 0-.839 2.926v.638z"
                style="fill:var(--color2, #10550a)" />
            <path fill="#219717"
                d="M8.471 11.294h.112a2.46 2.46 0 0 0 1.737-.719c.27-.27.473-.598.593-.96l.426-1.279a8.16 8.16 0 0 0 .401-2.04l.007-.112a9.04 9.04 0 0 0-.38-3.261l-.262-.851-.261-.913a.164.164 0 0 0-.304-.028l-.19.506a11.657 11.657 0 0 1-.925 1.916 11.682 11.682 0 0 0-.965 2.026L8.092 6.59l-.377 1.006a4.147 4.147 0 0 0-.241 1.031l-.07.701c-.042.422.053.847.271 1.211.15.25.354.464.597.627l.196.13zM4.144 21.587a3.348 3.348 0 0 0 2.632.813l.311-.311a1.293 1.293 0 0 0 .286-1.395L6.775 19.2c-.5-1-1.129-1.929-1.871-2.764L4.517 16l-.471-.66a5.37 5.37 0 0 1-.726-1.425l-.118-.354a.127.127 0 0 0-.246.023l-.322 2.415v1.681c0 .754.149 1.5.439 2.196l.21.503c.192.462.486.874.86 1.206z"
                style="fill:var(--color1, #219717)" />
            <path fill="none" stroke="#000" stroke-linecap="round" stroke-width=".377"
                d="m12.8 31.059-.217-.241a16.35 16.35 0 0 1-2.465-3.616v0a16.31 16.31 0 0 1-.885-2.136l-.386-1.159m0-.001L6.776 22.4m2.071 1.506L8.094 19.2m-1.318 3.2v0a3.348 3.348 0 0 1-2.632-.813v0a3.32 3.32 0 0 1-.86-1.206l-.21-.503a5.708 5.708 0 0 1-.439-2.196v-1.681l.322-2.415c.016-.124.183-.151.239-.04v0a.087.087 0 0 1 .007.017l.118.354c.169.508.414.989.726 1.425l.471.66.387.436a12.722 12.722 0 0 1 1.871 2.764v0l.598 1.494c.101.252.12.53.054.794v0a1.296 1.296 0 0 1-.34.601l-.311.311zm0 0-1.005-1.206a6.494 6.494 0 0 1-1.254-2.37v0m3.577.376 1.129-1.318M8.094 19.2l-.188-3.388v-2.126c0-.83.193-1.649.565-2.392v0m.753 6.588.33.412c.268.334.673.529 1.101.529v0c.294 0 .58-.092.819-.263l.588-.42c.241-.172.46-.372.652-.597l.287-.335c.366-.427.659-.911.868-1.433v0c.288-.72.409-1.496.354-2.27l-.048-.673a8.035 8.035 0 0 0-.264-1.547l-.357-1.31-.129-.901c-.018-.128-.19-.155-.248-.04v0l-.376.941a21.282 21.282 0 0 1-2.233 3.544l-.026.033-.479.766a5.522 5.522 0 0 0-.674 1.587v0a5.542 5.542 0 0 0-.165 1.339v.638zm0 0 1.694-1.506.319-.359a8.69 8.69 0 0 0 1.751-3.029v0m-4.517-1.694h.112a2.46 2.46 0 0 0 1.737-.719v0c.27-.27.473-.598.593-.96l.426-1.279a8.16 8.16 0 0 0 .401-2.04l.007-.112a9.04 9.04 0 0 0-.38-3.261l-.262-.851-.261-.913a.164.164 0 0 0-.304-.028v0l-.19.506a11.657 11.657 0 0 1-.925 1.916v0a11.682 11.682 0 0 0-.965 2.026L8.092 6.59l-.377 1.006a4.147 4.147 0 0 0-.241 1.031l-.07.701c-.042.422.053.847.271 1.211v0c.15.25.354.464.597.627l.196.13zm0 0 .112-.672c.176-1.055.454-2.091.829-3.092v0l.565-1.318"
                style="stroke:var(--color3, #000)" />
        </symbol>
        <symbol id="advan-icon3" viewBox="0 0 17 32">
            <path fill="#219717"
                d="m7.718 27.294 1.194.239c.435.087.885-.031 1.222-.319l.479-.41a.563.563 0 0 0-.618-.93l-1.169.584a1.827 1.827 0 0 0-.313.2l-.795.636z"
                style="fill:var(--color1, #219717)" />
            <path fill="#10550a"
                d="M5.868 27.327a1.24 1.24 0 0 0 1.567.155l.282-.188-.428-.571a1.432 1.432 0 0 0-.322-.314l-.628-.449a.655.655 0 0 0-.843.995l.372.372z"
                style="fill:var(--color2, #10550a)" />
            <path fill="#219717"
                d="M5.114 23.389a2.43 2.43 0 0 0 2.022 1.082h.582l-.37-1.111a3.06 3.06 0 0 0-.599-1.046l-.681-.778a.777.777 0 0 0-1.362.512v.379c0 .228.068.451.194.641l.214.321z"
                style="fill:var(--color1, #219717)" />
            <path fill="#10550a"
                d="m7.718 24.471.088.038a4.092 4.092 0 0 0 2.533.226l.733-.169c.269-.062.514-.198.709-.393l.254-.254a.89.89 0 0 0-.629-1.518h-.519c-.46 0-.897.197-1.203.54l-.507.57a3.308 3.308 0 0 1-1.244.874l-.216.086z"
                style="fill:var(--color2, #10550a)" />
            <path fill="#219717"
                d="m7.718 21.271.664.19a2.802 2.802 0 0 0 3.174-1.254l.371-.618a.846.846 0 0 0-.93-1.256l-.187.047a.998.998 0 0 0-.463.262l-.472.472a3.447 3.447 0 0 0-.48.603l-.198.317a3.102 3.102 0 0 1-1.478 1.236z"
                style="fill:var(--color1, #219717)" />
            <path fill="#10550a"
                d="M5.695 19.742c.093.139.211.26.348.356l1.675 1.172v-.764a2.35 2.35 0 0 0-.247-1.048l-.125-.249a1.424 1.424 0 0 0-.567-.599l-.498-.284a.671.671 0 0 0-.893.956l.307.46z"
                style="fill:var(--color2, #10550a)" />
            <path fill="#219717"
                d="M5.517 16.059c.21.21.46.375.735.485l1.465.586-.4-1.333a4.244 4.244 0 0 0-.469-1.036l-.52-.833a.782.782 0 0 0-1.432.275l-.084.461c-.067.366.051.741.314 1.004l.392.392z"
                style="fill:var(--color1, #219717)" />
            <path fill="#10550a"
                d="m7.718 17.129.976.293a1.322 1.322 0 0 0 1.456-.498l.206-.288a.628.628 0 0 0-.887-.867l-.809.607-.941.753z"
                style="fill:var(--color2, #10550a)" />
            <path fill="#219717"
                d="M7.718 13.741h.297c.427 0 .852-.062 1.261-.185l.822-.246a1.54 1.54 0 0 0 .74-.489l.336-.403a.738.738 0 0 0-.933-1.113l-.469.268a1.236 1.236 0 0 0-.304.244l-1.749 1.924z"
                style="fill:var(--color1, #219717)" />
            <path fill="#10550a"
                d="M5.914 11.601c.186.279.499.446.833.446h.97l-.458-.917c-.07-.14-.17-.263-.292-.361l-.322-.257a.622.622 0 0 0-.905.83l.173.26zM7.718 9.6h1.109c.499 0 .982-.179 1.361-.503l.37-.317a1.03 1.03 0 0 0 .36-.783v-.125a.906.906 0 0 0-1.588-.596l-.756.864a3.42 3.42 0 0 0-.488.726l-.367.735z"
                style="fill:var(--color2, #10550a)" />
            <path fill="#219717"
                d="M6.103 8.65c.432.247.944.318 1.427.197l-.558-.977a2.926 2.926 0 0 0-.472-.618l-.462-.462a.887.887 0 0 0-.482-.248l-.239-.04a.64.64 0 0 0-.556 1.082l.511.511c.125.125.266.233.42.321l.412.236zM7.529 6.024l.831-.831c.198-.198.373-.418.522-.656l.387-.619a1.71 1.71 0 0 0 .242-1.146l-.053-.369a.807.807 0 0 0-1.285-.532l-.105.079a.996.996 0 0 0-.264.299l-.229.4a3.215 3.215 0 0 0-.423 1.593v1.406l.376.376z"
                style="fill:var(--color1, #219717)" />
            <path fill="#10550a"
                d="M5.344 4.779a3.004 3.004 0 0 0 1.629.838l.181.03-.29-1.304a2.128 2.128 0 0 0-.309-.723l-.294-.441a.959.959 0 0 0-.66-.416l-.22-.031a.72.72 0 0 0-.808.572.717.717 0 0 0 .089.512l.285.475c.091.151.199.29.324.415l.074.074z"
                style="fill:var(--color2, #10550a)" />
            <path fill="none" stroke="#000" stroke-linecap="round" stroke-width=".377"
                d="M7.718 30.682v-3.388m0 0 1.194.239c.435.087.885-.031 1.222-.319l.479-.41a.561.561 0 0 0 .156-.636v0a.563.563 0 0 0-.774-.294l-1.169.584a1.827 1.827 0 0 0-.313.2l-.795.636zm0 0-.282.188a1.243 1.243 0 0 1-1.567-.155l-.372-.372a.653.653 0 0 1-.048-.871v0a.655.655 0 0 1 .891-.124l.628.449c.123.088.231.194.322.314l.428.571zm0 0V24.47m0 .001.088.038a4.092 4.092 0 0 0 2.533.226l.733-.169c.269-.062.514-.198.709-.393l.254-.254a.89.89 0 0 0 .215-.91v0a.89.89 0 0 0-.844-.608h-.519c-.46 0-.897.197-1.203.54l-.507.57a3.308 3.308 0 0 1-1.244.874l-.216.086zm0 0h-.582a2.431 2.431 0 0 1-2.022-1.082l-.214-.321a1.153 1.153 0 0 1-.194-.641v-.379c0-.429.348-.777.777-.777v0a.78.78 0 0 1 .585.265l.681.778c.267.305.471.661.599 1.046l.37 1.111zm0 0v-3.2m0 0 .664.19c.429.123.882.141 1.32.053v0a2.802 2.802 0 0 0 1.854-1.307l.371-.618a.844.844 0 0 0 .121-.435v0a.846.846 0 0 0-1.051-.821l-.187.047a.998.998 0 0 0-.463.262l-.472.472a3.447 3.447 0 0 0-.48.603l-.198.317a3.102 3.102 0 0 1-1.478 1.236v0zm0 0-1.675-1.172a1.354 1.354 0 0 1-.348-.356l-.307-.46a.67.67 0 0 1 .084-.848v0a.672.672 0 0 1 .809-.108l.498.284c.244.139.441.348.567.599l.125.249c.163.325.247.684.247 1.048v.764zm0 0V17.13m0-.001.976.293a1.322 1.322 0 0 0 1.456-.498l.206-.288a.628.628 0 0 0 .085-.563v0a.628.628 0 0 0-.972-.304l-.809.607-.941.753zm0 0-1.465-.586a2.18 2.18 0 0 1-.735-.485l-.392-.392a1.135 1.135 0 0 1-.314-1.004l.084-.461a.782.782 0 0 1 1.119-.56v0a.775.775 0 0 1 .313.285l.52.833c.202.323.36.672.469 1.036l.4 1.333zm0 0v-3.388m0 0h.297c.427 0 .852-.062 1.261-.185l.822-.246a1.54 1.54 0 0 0 .74-.489l.336-.403a.737.737 0 0 0 .093-.802v0a.738.738 0 0 0-1.026-.311l-.469.268a1.236 1.236 0 0 0-.304.244l-1.749 1.924zm0 0v-1.694m0 0h-.97a.999.999 0 0 1-.833-.446l-.173-.26a.621.621 0 0 1 .078-.784v0a.621.621 0 0 1 .827-.046l.322.257c.122.098.222.221.292.361l.458.917zm0 0V9.6m0 0h1.109c.499 0 .982-.179 1.361-.503l.37-.317a1.03 1.03 0 0 0 .36-.783v-.125a.906.906 0 0 0-.906-.906v0a.906.906 0 0 0-.682.31l-.756.864a3.42 3.42 0 0 0-.488.726l-.367.735zm0 0-.188-.753m-.001 0v0c-.483.121-.994.05-1.427-.197l-.412-.236a1.99 1.99 0 0 1-.42-.321l-.511-.511a.641.641 0 0 1-.175-.577v0a.64.64 0 0 1 .731-.505l.239.04c.183.03.351.117.482.248l.462.462c.184.184.343.392.472.618l.558.977zm0 0V6.023m0 .001.831-.831c.198-.198.373-.418.522-.656l.387-.619a1.71 1.71 0 0 0 .242-1.146l-.053-.369a.807.807 0 0 0-.315-.532v0a.807.807 0 0 0-.97 0l-.105.079a.996.996 0 0 0-.264.299l-.229.4a3.215 3.215 0 0 0-.423 1.593v1.406m.377.376-.376-.376m0-.001-.181-.03a3.007 3.007 0 0 1-1.629-.838l-.074-.074a2.167 2.167 0 0 1-.324-.415l-.285-.475a.723.723 0 0 1-.089-.512v0a.72.72 0 0 1 .808-.572l.22.031c.269.038.509.19.66.416l.294.441c.147.22.251.465.309.723l.29 1.304z"
                style="stroke:var(--color3, #000)" />
        </symbol>
        <symbol id="advan-icon4" viewBox="0 0 17 32">
            <path fill="#10550a"
                d="M3.576 16.753c0 .373-.077.743-.223 1.086a2.796 2.796 0 0 0-.172 1.643l.079.395c.085.424.246.829.475 1.196l.228.366a2.202 2.202 0 0 0 2.404.97l.032-.008-.666-1.065a4.557 4.557 0 0 0-.643-.808 4.566 4.566 0 0 1-1.103-1.784l-.036-.107-.376-1.882z"
                style="fill:var(--color2, #10550a)" />
            <path fill="#219717"
                d="M6.4 22.4v-.14c0-.902-.179-1.795-.525-2.627l-.022-.052a6.473 6.473 0 0 0-1.061-1.724 6.417 6.417 0 0 0-1.031-.966l-.184-.138.376 1.882.036.107a4.566 4.566 0 0 0 1.103 1.784c.244.244.46.515.643.808l.666 1.065z"
                style="fill:var(--color1, #219717)" />
            <path fill="#10550a"
                d="M12.8 20.141c-.366 0-.72.124-1.006.353l-.5.4-1.025.769a2.146 2.146 0 0 0-.857 1.715v.246c0 .435.083.866.245 1.27l.132.329a2.74 2.74 0 0 0 .738-1.344l.015-.067c.123-.553.401-1.06.802-1.461l.233-.233c.312-.312.572-.673.77-1.068l.455-.909z"
                style="fill:var(--color2, #10550a)" />
            <path fill="#219717"
                d="m9.788 25.224 1.059-.289a2.802 2.802 0 0 0 2.051-2.954l-.099-1.087v-.753l-.455.909a4.078 4.078 0 0 1-.77 1.068l-.233.233a2.977 2.977 0 0 0-.802 1.461l-.015.067a2.74 2.74 0 0 1-.738 1.344zM13.553 10.353a5.153 5.153 0 0 0-1.348.972l-.985.985a3.607 3.607 0 0 0-1.055 2.548v.578a20.502 20.502 0 0 0 2.022-2.806l1.366-2.277z"
                style="fill:var(--color1, #219717)" />
            <path fill="#10550a"
                d="M10.165 15.435h.202a3.23 3.23 0 0 0 2.839-1.686l.234-.429a2.5 2.5 0 0 0 .209-1.879 2.48 2.48 0 0 1-.096-.685v-.404l-1.366 2.277a20.65 20.65 0 0 1-2.022 2.806z"
                style="fill:var(--color2, #10550a)" />
            <path fill="#219717"
                d="M3.953 7.529a3.524 3.524 0 0 0 .236 2.543l.14.28.636 1.059A2.17 2.17 0 0 0 6.4 12.422l-.156-.86a3.57 3.57 0 0 0-1.139-2.027 3.565 3.565 0 0 1-1.06-1.686l-.092-.321z"
                style="fill:var(--color1, #219717)" />
            <path fill="#10550a"
                d="m6.4 12.424.271-.95a2.732 2.732 0 0 0-1.405-3.193l-.373-.186-.941-.565.092.321a3.57 3.57 0 0 0 1.06 1.686 3.558 3.558 0 0 1 1.139 2.027l.156.86z"
                style="fill:var(--color2, #10550a)" />
            <path fill="#219717"
                d="m9.035 1.129-.674.561a2.834 2.834 0 0 0-1.02 2.178v.648c0 .871.157 1.736.463 2.551l.102.272.376.941.376-2.824v-.154c0-1.4.126-2.798.376-4.175z"
                style="fill:var(--color1, #219717)" />
            <path fill="#10550a"
                d="m8.282 8.282.156-.175a6.543 6.543 0 0 0 1.602-3.535l.063-.505a3.227 3.227 0 0 0-.027-.976l-.138-.756a1.686 1.686 0 0 0-.904-1.205 23.386 23.386 0 0 0-.376 4.175v.154l-.376 2.824z"
                style="fill:var(--color2, #10550a)" />
            <path fill="none" stroke="#000" stroke-linecap="round" stroke-width=".377"
                d="M7.906 30.682v-3.953m0 0 1.882-1.506m-1.882 1.506v-3.765m1.882 2.26 1.059-.289a2.793 2.793 0 0 0 1.592-1.148v0a2.802 2.802 0 0 0 .459-1.806l-.099-1.087v-.753m-3.011 5.083-.132-.329a3.412 3.412 0 0 1-.245-1.27v-.246c0-.273.052-.543.153-.796v0c.146-.365.389-.683.704-.919l1.025-.769.5-.4c.285-.228.64-.353 1.006-.353v0m-3.011 5.082v0a2.74 2.74 0 0 0 .738-1.344l.015-.067c.123-.553.401-1.06.802-1.461l.233-.233c.312-.312.572-.673.77-1.068l.455-.909m-4.895 2.823L6.4 22.4m1.506.565v-5.647M6.4 22.4v-.14c0-.902-.179-1.795-.525-2.627l-.022-.052a6.473 6.473 0 0 0-1.061-1.724v0a6.417 6.417 0 0 0-1.031-.966l-.184-.138M6.4 22.4l-.032.008c-.467.117-.96.077-1.403-.112v0a2.206 2.206 0 0 1-1.001-.858l-.228-.366a3.593 3.593 0 0 1-.475-1.196l-.079-.395a2.796 2.796 0 0 1 .172-1.643v0c.147-.342.223-.713.223-1.086v0M6.4 22.4l-.666-1.065a4.557 4.557 0 0 0-.643-.808v0a4.566 4.566 0 0 1-1.103-1.784l-.036-.107-.376-1.882m4.33.564 2.259-1.882m-2.259 1.882v-3.576m2.259 1.693h.202c.606 0 1.2-.17 1.714-.492v0a3.23 3.23 0 0 0 1.125-1.194l.234-.429a2.5 2.5 0 0 0 .209-1.879v0a2.48 2.48 0 0 1-.096-.685v-.404m-3.388 5.083v-.578c0-.488.099-.971.291-1.419v0c.181-.421.44-.804.764-1.129l.985-.985a5.2 5.2 0 0 1 1.348-.972v0m-3.388 5.083v0a20.502 20.502 0 0 0 2.022-2.806l1.366-2.277m-5.647 3.389L6.4 12.423m1.506 1.318.376-5.459M6.4 12.424l.271-.95c.07-.244.105-.497.105-.75v0c0-1.035-.585-1.98-1.51-2.443l-.373-.186-.941-.565M6.4 12.424v0a2.172 2.172 0 0 1-1.435-1.011l-.636-1.059-.14-.28a3.519 3.519 0 0 1-.236-2.543v0M6.4 12.424l-.156-.86a3.57 3.57 0 0 0-1.139-2.027v0a3.565 3.565 0 0 1-1.06-1.686l-.092-.321m4.329.752.156-.175a6.543 6.543 0 0 0 1.602-3.535l.063-.505a3.227 3.227 0 0 0-.027-.976l-.138-.756a1.686 1.686 0 0 0-.904-1.205v0m-.752 7.152-.376-.941-.102-.272a7.265 7.265 0 0 1-.463-2.551v0-.648c0-.44.103-.874.299-1.268v0c.175-.35.42-.66.721-.91l.674-.561m-.753 7.151.376-2.824v-.154c0-1.4.126-2.798.376-4.175v0"
                style="stroke:var(--color3, #000)" />
        </symbol>
        <symbol id="footer-logo" viewBox="0 0 50 32">
            <path fill="#10550a"
                d="M22.201 28.068a4.193 4.193 0 0 1 0 0zm1.947-1.006a4.34 4.34 0 0 0 0 0zm6.901-.359a3.528 3.528 0 0 0 0 0zM21.336 26.981l-.011-.04a2.812 2.812 0 0 1 .193-1.945l.078-.16c.118-.242.285-.457.489-.631l.225-.192c.232-.198.531-.3.836-.286l.416.019a.66.66 0 0 1 .474 1.086l-.625.743a2.64 2.64 0 0 1-.427.405l-.291.22c-.317.24-.658.447-1.017.617l-.341.163z"
                style="fill:var(--color2, #10550a)" />
            <path fill="#219717"
                d="m21.336 26.981-.011-.04a2.812 2.812 0 0 1 .193-1.945l.078-.16c.118-.242.285-.457.489-.631l.225-.192c.232-.198.531-.3.836-.286l.416.019a.66.66 0 0 1 .474 1.086l-.625.743a2.64 2.64 0 0 1-.427.405l-.291.22c-.317.24-.658.447-1.017.617l-.341.163z"
                style="fill:var(--color1, #219717)" />
            <path fill="#10550a"
                d="m24.148 27.062-.131.159a3.725 3.725 0 0 1 .307-1.762l.074-.168a2.45 2.45 0 0 1 .406-.633l.315-.357a.673.673 0 0 1 .281-.189l.138-.048a.537.537 0 0 1 .624.804l-.451.684a2.475 2.475 0 0 1-.574.612l-.256.194a4.34 4.34 0 0 0-.735.705z"
                style="fill:var(--color2, #10550a)" />
            <path fill="#10550a"
                d="m24.017 27.221.828.729.926.978c.067.07.122.15.166.236l.302.602a.422.422 0 0 1-.591.551l-.502-.299a1.748 1.748 0 0 1-.613-.619l-.152-.261a2.92 2.92 0 0 1-.365-1.907l.002-.011z"
                style="fill:var(--color2, #10550a)" />
            <path fill="#219717"
                d="m24.017 27.221.828.729.926.978c.067.07.122.15.166.236l.302.602a.422.422 0 0 1-.591.551l-.502-.299a1.748 1.748 0 0 1-.613-.619l-.152-.261a2.92 2.92 0 0 1-.365-1.907l.002-.011z"
                style="fill:var(--color1, #219717)" />
            <path fill="#10550a"
                d="m21.336 26.981.511.599.355.487c.168.23.358.444.569.636l.225.206c.256.234.465.516.614.829l.046.097c.08.167.135.345.164.528l.103.642a.317.317 0 0 1-.458.333l-.354-.182a.775.775 0 0 1-.233-.185l-.886-1.04a3.204 3.204 0 0 1-.411-.613l-.073-.142a2.837 2.837 0 0 1-.171-2.195zM26.272 27.591l-.101-.385.253.104c.463.19.894.448 1.281.766l.199.164c.17.14.322.299.455.474l.556.735a.258.258 0 0 1-.304.395l-.824-.338a.9.9 0 0 1-.196-.111l-.217-.163a3.001 3.001 0 0 1-1.102-1.642zM29.902 25.894a11.03 11.03 0 0 1-1.249 1.187 2.017 2.017 0 0 1 .271-1.516l.394-.616a.9.9 0 0 1 .215-.233l.403-.305a.484.484 0 0 1 .654.707l-.471.534-.217.241zM29.052 27.794l-.4-.712.795.236c.388.115.754.293 1.083.527l.466.33a.535.535 0 0 1-.079.918l-.01.005a.542.542 0 0 1-.575-.069l-.771-.628a2.12 2.12 0 0 1-.509-.606z"
                style="fill:var(--color2, #10550a)" />
            <path fill="#219717"
                d="m29.052 27.794-.4-.712.795.236c.388.115.754.293 1.083.527l.466.33a.535.535 0 0 1-.079.918l-.01.005a.542.542 0 0 1-.575-.069l-.771-.628a2.12 2.12 0 0 1-.509-.606z"
                style="fill:var(--color1, #219717)" />
            <path fill="#10550a"
                d="M31.912 25.653a3.528 3.528 0 0 0-.863 1.05l-.131.244a1.238 1.238 0 0 1-.088-1.24l.173-.355c.104-.214.272-.391.48-.507l.4-.222a.44.44 0 0 1 .453.753l-.424.278z"
                style="fill:var(--color2, #10550a)" />
            <path fill="#219717"
                d="M31.912 25.653a3.528 3.528 0 0 0-.863 1.05l-.131.244a1.238 1.238 0 0 1-.088-1.24l.173-.355c.104-.214.272-.391.48-.507l.4-.222a.44.44 0 0 1 .453.753l-.424.278z"
                style="fill:var(--color1, #219717)" />
            <path fill="#10550a"
                d="m31.112 27.213-.194-.267h.841a1.9 1.9 0 0 1 1.251.475l.077.069a.292.292 0 0 1-.139.518l-.276.04a.408.408 0 0 1-.163-.009l-.305-.08a1.966 1.966 0 0 1-1.091-.746z"
                style="fill:var(--color2, #10550a)" />
            <path fill="#219717"
                d="m32.918 26.462-.329-.11.592-.582a1.45 1.45 0 0 1 1.018-.416h.408c.313 0 .599.176.741.455l.052.103a.35.35 0 0 1-.182.484l-.244.098a.718.718 0 0 1-.144.041l-.262.047a3.344 3.344 0 0 1-1.649-.119z"
                style="fill:var(--color1, #219717)" />
            <path fill="#10550a"
                d="M27.475 26.075a4.103 4.103 0 0 1-1.303 1.131 1.622 1.622 0 0 1-.085-.966l.052-.237c.075-.342.231-.66.456-.927l.462-.549a.696.696 0 0 1 .565-.247l.065.003a.549.549 0 0 1 .445.828l-.266.447-.388.518z"
                style="fill:var(--color2, #10550a)" />
            <path fill="#219717"
                d="M27.475 26.075a4.103 4.103 0 0 1-1.303 1.131 1.622 1.622 0 0 1-.085-.966l.052-.237c.075-.342.231-.66.456-.927l.462-.549a.696.696 0 0 1 .565-.247l.065.003a.549.549 0 0 1 .445.828l-.266.447-.388.518z"
                style="fill:var(--color1, #219717)" />
            <path fill="#10550a"
                d="M5.712 22.856a1.007 1.007 0 0 1-.591.403l-.727.174-.023-.064.331-.763a.56.56 0 0 1 .383-.321l.326-.078a.354.354 0 0 1 .427.425.348.348 0 0 1-.054.121l-.072.103zM4.066 24.971a.691.691 0 0 1-.007-.344l.277-1.174.082.047.551 1.561a.423.423 0 1 1-.806.255l-.096-.344zM8.815 25.688l-.046-.278c-.069-.423.096-.85.431-1.116l.259-.206a.58.58 0 0 1 .842.774.58.58 0 0 1-.239.205l-.931.429-.315.192z"
                style="fill:var(--color2, #10550a)" />
            <path fill="#10550a"
                d="M8.477 26.773a.543.543 0 0 1-.042-.261l.021-.235a.781.781 0 0 1 .359-.59l.033.21c.021.132.063.26.124.379l.259.506a.344.344 0 1 1-.623.293l-.131-.303zM16.083 25.452a5.247 5.247 0 0 1-1.162.695l-.93.404.844-1.284c.198-.301.522-.496.881-.529l.313-.029a.335.335 0 0 1 .238.597l-.184.145z"
                style="fill:var(--color2, #10550a)" />
            <path fill="#10550a"
                d="m13.991 26.552 1.387.471a.976.976 0 0 1 .366.225l.196.192a.303.303 0 0 1-.221.518l-.115-.004a.41.41 0 0 1-.204-.062l-.477-.297-.558-.363a.824.824 0 0 1-.375-.682z"
                style="fill:var(--color2, #10550a)" />
            <path fill="#219717"
                d="M17.255 26.498a.16.16 0 0 1-.079-.289l.15-.108a.255.255 0 0 1 .059-.031l.665-.228a.374.374 0 0 1 .32.671l-.113.07a.495.495 0 0 1-.375.062l-.626-.148zM11.461 26.174a.769.769 0 0 1 .289-.98l.616-.384a.993.993 0 0 1 .176-.087l.368-.139a.41.41 0 0 1 .445.105.42.42 0 0 1 .099.186l.006.026a.51.51 0 0 1-.202.532l-.513.363c-.168.119-.36.201-.563.24l-.721.138zM11.778 27.587a1.33 1.33 0 0 1-.316-1.413l.443.435.609.511a.741.741 0 0 1 .189.241l.214.433a.213.213 0 0 1-.078.276.215.215 0 0 1-.191.018l-.398-.157a1.07 1.07 0 0 1-.355-.23l-.116-.114zM6.72 24.156a.54.54 0 0 1 .212-.52l.018-.013a.523.523 0 0 1 .78.202.504.504 0 0 1-.273.689l-.085.033-.545.261-.106-.652zM6.397 26.808a.45.45 0 0 1-.21-.332l-.044-.381a1.245 1.245 0 0 1 .413-1.076l.186-.164.097.023.021.09c.022.095.051.189.087.279l.244.622a.673.673 0 0 1-.053.6l-.117.191a.452.452 0 0 1-.623.147zM23.809 6.761c.338.024.678.016 1.015-.022l.421-.048h.522l-.201-.204a1.807 1.807 0 0 0-1.285-.54h-.195c-.307 0-.613-.046-.907-.135l-.252-.077a4.867 4.867 0 0 0-1.423-.212h-.2a.135.135 0 0 0-.091.235l.399.365a.359.359 0 0 0 .09.059l.489.224a3.75 3.75 0 0 0 1.302.332l.317.022zM27.543 4.231a.304.304 0 0 0 .044.029l.527.297a8.276 8.276 0 0 0 2.022.811l.605.154-.742-.637-.927-.637-.153-.093a3.708 3.708 0 0 0-1.934-.544.08.08 0 0 0-.049.143l.608.478zM32.705 8.429c-.718.044-1.424.2-2.093.463l-.531.208a.86.86 0 0 0-.157.08l-1.243.789a.121.121 0 0 0 .014.213.132.132 0 0 0 .059.011l.923-.065a3.758 3.758 0 0 0 1.072-.237l.384-.147a3.434 3.434 0 0 0 1.592-1.24l.055-.079-.076.005z"
                style="fill:var(--color1, #219717)" />
            <path fill="#10550a"
                d="M23.854 4.46c.843.491 1.77.822 2.733.975l.165.026-.273-.339a4.015 4.015 0 0 0-1.192-1.001l-.558-.306a2.416 2.416 0 0 0-.375-.166l-.262-.09a1.532 1.532 0 0 0-.947-.016l-.209.064a.076.076 0 0 1-.021.003.074.074 0 0 0-.069.099l.056.155a.186.186 0 0 0 .084.099l.867.497zM26.238 8.177c-.657 0-1.308.12-1.921.354l-.414.158a.63.63 0 0 0-.094.046l-.443.27a.183.183 0 0 0-.028.291.184.184 0 0 0 .124.048h1.637a2.69 2.69 0 0 0 1.355-.366l.229-.134c.274-.159.498-.391.65-.668h-1.094zM31.23 4.426a.566.566 0 0 0 .094.058l.571.279a6.97 6.97 0 0 0 2.356.672l.617.063-.573-.513a4.65 4.65 0 0 0-1.313-.828l-.179-.074a3.143 3.143 0 0 0-.766-.21l-1.031-.145a.224.224 0 0 0-.167.4l.391.299z"
                style="fill:var(--color2, #10550a)" />
            <path fill="#219717"
                d="m38.664 26.079.541-.066a1.478 1.478 0 0 1-.083-.465l-.013-.82-.003-.152a4.327 4.327 0 0 0-.28-1.463l-.113.486-.229.725a2.276 2.276 0 0 0-.084.383l-.031.243c-.051.4.055.805.294 1.13z"
                style="fill:var(--color1, #219717)" />
            <path fill="#10550a"
                d="m36.827 26.097.266.569a2.393 2.393 0 0 0 2.795 1.295l.573-.156.376-.151c.033-.013.024-.064-.012-.064l-.012-.002-.597-.237a2.674 2.674 0 0 0-.988-.189 2.613 2.613 0 0 1-1.456-.439l-.944-.627zM40.689 24.26c.081.374.33.69.675.856l.063.03c.094-.404.138-.817.132-1.232l-.005-.284a6.196 6.196 0 0 0-.081-.902l-.043-.262-.053-.499-.084-.525-.001-.008c-.001-.061-.086-.076-.107-.018l-.26.709-.092.362a4.97 4.97 0 0 0-.146.963l-.024.483c-.006.109.003.219.026.326zM40.46 25.787l.304.216a1.825 1.825 0 0 0 1.946.103l.69-.387.845-.584a.372.372 0 0 0 .09-.087l.392-.522a.072.072 0 0 0-.058-.115l-.01.001-.523.083-.753.163-.513.18a2.17 2.17 0 0 0-.701.406 2.181 2.181 0 0 1-1.35.528l-.359.012z"
                style="fill:var(--color2, #10550a)" />
            <path fill="#219717"
                d="M42.609 23.462c.137.307.47.475.797.404l.567-.123.887-.22a.328.328 0 0 0 .158-.091l.811-.839c.041-.042-.003-.11-.058-.091a.049.049 0 0 0-.007.003l-.161.084c-.288.15-.601.245-.924.279l-.342.037-.679.087-.076.02a3.149 3.149 0 0 0-.975.451zM43.04 21.042a.894.894 0 0 0 .589.604 2.37 2.37 0 0 1 .154-.878l.129-.337.185-.714.093-.804.138-.755.001-.009c-.001-.044-.058-.06-.082-.023l-.215.335-.254.475a3.1 3.1 0 0 1-.257.404l-.155.206c-.145.193-.25.412-.31.645l-.051.2c-.047.185-.044.379.009.562l.026.089z"
                style="fill:var(--color1, #219717)" />
            <path fill="#10550a"
                d="M44.01 21.245c.096.361.41.622.782.649l.083.006c.085.006.17.002.253-.014l.321-.059c.303-.056.598-.151.877-.283l.405-.192.412-.238c.07-.04.04-.148-.041-.146a6.73 6.73 0 0 1-1.361.035l-.15-.011-.482.008a2.79 2.79 0 0 0-1.101.245zM45.168 19.779l.407-.105c.274-.071.523-.215.722-.417.085-.086.16-.182.223-.286l.146-.24a2.996 2.996 0 0 0 .297-2.464l-.249-.787a.05.05 0 0 0-.009-.018.058.058 0 0 0-.104.028l-.102.816-.072.797a2.044 2.044 0 0 1-.427.957l-.005.006-.401.428a1.96 1.96 0 0 0-.425 1.219v.066zM5.015 11.96l1.581-3.41.353-.555a3.387 3.387 0 0 0-1.583.912l-.051.052a3.718 3.718 0 0 0-.349.413l-.754 1.042a21.109 21.109 0 0 0-1.554 3.336l-.173.476-.291.964a8.27 8.27 0 0 0-.323 3.071l.074.893.007.037c.153.789.401 1.557.741 2.286l.259.436-.04-.166a8.149 8.149 0 0 1-.167-2.948 8.188 8.188 0 0 1 .426-1.765l1.845-5.075z"
                style="fill:var(--color2, #10550a)" />
            <path fill="#219717"
                d="m6.595 8.55-1.581 3.41-1.845 5.075a8.151 8.151 0 0 0-.259 4.713l.04.166a4.215 4.215 0 0 1 .1-1.927l.172-.593 1.234-3.081 1.352-2.468.357-.697a7.966 7.966 0 0 0 .876-3.718l-.008-.833-.085-.6-.353.555z"
                style="fill:var(--color1, #219717)" />
            <path fill="#10550a"
                d="m43.47 11.701-1.616.704a2.503 2.503 0 0 1-.847.204l-.339.021a1.165 1.165 0 0 1-.558-.103l-.082-.038a.944.944 0 0 1-.491-.527l-.012-.033a.735.735 0 0 1 .569-.983l.761-.125a3.185 3.185 0 0 1 2.19.429l.391.239.246.178-.211.035z"
                style="fill:var(--color2, #10550a)" />
            <path fill="#219717"
                d="M40.664 6.44c.116.296.2.603.251.916l.168 1.02a1.905 1.905 0 0 1-1.2-.195l-.216-.114a2.658 2.658 0 0 1-.317-.197l-.586-.425-.487-.414a2.317 2.317 0 0 1-.783-1.383l-.058-.355a1.057 1.057 0 0 1 .033-.487l.031-.103a.83.83 0 0 1 1.177-.49l.391.206c.127.067.246.15.352.247l.197.179c.435.395.772.886.986 1.433l.063.162zM43.824 7.923l-.219.715a.929.929 0 0 0-.028.419l-.615-.446-.03-.027a1.862 1.862 0 0 1-.584-1.074l-.175-1.065-.068-.414a.865.865 0 0 1 .241-.752l.097-.098a.615.615 0 0 1 .573-.167.614.614 0 0 1 .366.242l.211.294c.141.196.234.422.274.66l.049.301c.056.337.05.68-.015 1.015l-.078.398zM19.088 5.99c.063-.123.109-.253.136-.388l.112-.553-.197.001c-.25.002-.498.051-.729.146l-.394.161a.753.753 0 0 0-.373.331l-.016.029a.69.69 0 0 0 .703 1.023l.027-.004a.734.734 0 0 0 .548-.391l.182-.355z"
                style="fill:var(--color1, #219717)" />
            <path fill="#10550a"
                d="m16.923 3.377.049-.166a1.46 1.46 0 0 0-.048-.965l-.018-.043a1.262 1.262 0 0 0-.336-.471l-.086-.076a.911.911 0 0 0-.534-.224l-.15-.011a.583.583 0 0 0-.615.69l.004.019a.615.615 0 0 0 .199.347l.451.396c.306.268.682.444 1.084.506zM13.781 5.908c.187-.277.224-.629.098-.939l-.459-.035a1.498 1.498 0 0 0-.503.047l-.222.06a.925.925 0 0 0-.555.42l-.013.022a.805.805 0 0 0-.095.245l-.018.088a.67.67 0 0 0 1.026.692l.436-.289c.115-.076.213-.174.29-.288l.016-.023z"
                style="fill:var(--color2, #10550a)" />
            <path fill="#219717"
                d="m9.891 5.097-.246-.103a1.44 1.44 0 0 0-.648-.109l-.129.009a.88.88 0 0 0-.389.12l-.146.085a.612.612 0 0 0-.301.568l.005.079a.453.453 0 0 0 .499.418l.286-.031c.211-.023.413-.102.584-.228l.063-.046c.245-.18.399-.458.422-.76z"
                style="fill:var(--color1, #219717)" />
        </symbol>
        <symbol id="header-logo" viewBox="0 0 50 32">
            <path fill="#10550a"
                d="M22.201 28.068a4.193 4.193 0 0 1 0 0zm1.946-1.006a4.34 4.34 0 0 0 0 0zm6.902-.359a3.51 3.51 0 0 0 0 0zM21.335 26.981l-.011-.04a2.812 2.812 0 0 1 .193-1.945l.078-.16c.118-.242.285-.457.489-.631l.225-.192c.232-.198.531-.3.836-.286l.416.019a.66.66 0 0 1 .474 1.086l-.625.743a2.64 2.64 0 0 1-.427.405l-.291.22c-.317.24-.658.447-1.017.617l-.341.163z"
                style="fill:var(--color2, #10550a)" />
            <path fill="#219717"
                d="m21.335 26.981-.011-.04a2.812 2.812 0 0 1 .193-1.945l.078-.16c.118-.242.285-.457.489-.631l.225-.192c.232-.198.531-.3.836-.286l.416.019a.66.66 0 0 1 .474 1.086l-.625.743a2.64 2.64 0 0 1-.427.405l-.291.22c-.317.24-.658.447-1.017.617l-.341.163z"
                style="fill:var(--color1, #219717)" />
            <path fill="#10550a"
                d="m24.147 27.062-.131.159a3.725 3.725 0 0 1 .307-1.762l.075-.168a2.45 2.45 0 0 1 .406-.633l.315-.357a.673.673 0 0 1 .281-.189l.138-.048a.537.537 0 0 1 .624.804l-.451.684a2.475 2.475 0 0 1-.574.612l-.256.194a4.34 4.34 0 0 0-.735.705zM24.016 27.221l.828.729.926.978c.067.07.122.15.166.237l.302.602a.422.422 0 0 1-.591.551l-.502-.299a1.748 1.748 0 0 1-.613-.619l-.152-.261a2.92 2.92 0 0 1-.365-1.907l.002-.011z"
                style="fill:var(--color2, #10550a)" />
            <path fill="#219717"
                d="m24.016 27.221.828.729.926.978c.067.07.122.15.166.237l.302.602a.422.422 0 0 1-.591.551l-.502-.299a1.748 1.748 0 0 1-.613-.619l-.152-.261a2.92 2.92 0 0 1-.365-1.907l.002-.011z"
                style="fill:var(--color1, #219717)" />
            <path fill="#10550a"
                d="m21.335 26.981.511.599.355.487c.168.23.358.444.569.636l.225.206c.256.234.465.515.614.829l.046.098c.08.167.135.345.164.528l.103.642a.317.317 0 0 1-.458.333l-.354-.182a.775.775 0 0 1-.233-.185l-.886-1.041a3.228 3.228 0 0 1-.411-.612l-.073-.142a2.837 2.837 0 0 1-.171-2.195zM26.271 27.591l-.101-.385.253.104a5 5 0 0 1 1.281.766l.199.164c.17.14.322.299.455.474l.556.735a.258.258 0 0 1-.304.395l-.824-.338a.9.9 0 0 1-.196-.111l-.216-.163a3.001 3.001 0 0 1-1.102-1.642zM29.901 25.894c-.385.428-.802.825-1.249 1.187a2.017 2.017 0 0 1 .271-1.516l.394-.616a.9.9 0 0 1 .215-.233l.403-.305a.483.483 0 0 1 .654.707l-.471.534-.217.241zM29.051 27.794l-.4-.712.796.236c.388.115.753.293 1.083.527l.466.33a.535.535 0 0 1-.079.918l-.01.005a.544.544 0 0 1-.576-.069l-.771-.628a2.12 2.12 0 0 1-.509-.606z"
                style="fill:var(--color2, #10550a)" />
            <path fill="#219717"
                d="m29.051 27.794-.4-.712.796.236c.388.115.753.293 1.083.527l.466.33a.535.535 0 0 1-.079.918l-.01.005a.544.544 0 0 1-.576-.069l-.771-.628a2.12 2.12 0 0 1-.509-.606z"
                style="fill:var(--color1, #219717)" />
            <path fill="#10550a"
                d="M31.911 25.653a3.51 3.51 0 0 0-.862 1.05l-.131.244a1.24 1.24 0 0 1-.088-1.24l.173-.355c.104-.214.272-.391.48-.507l.4-.222a.44.44 0 0 1 .453.753l-.425.278z"
                style="fill:var(--color2, #10550a)" />
            <path fill="#219717"
                d="M31.911 25.653a3.51 3.51 0 0 0-.862 1.05l-.131.244a1.24 1.24 0 0 1-.088-1.24l.173-.355c.104-.214.272-.391.48-.507l.4-.222a.44.44 0 0 1 .453.753l-.425.278z"
                style="fill:var(--color1, #219717)" />
            <path fill="#10550a"
                d="m31.112 27.213-.194-.267h.841a1.896 1.896 0 0 1 1.251.475l.077.069a.292.292 0 0 1-.139.518l-.277.04a.408.408 0 0 1-.163-.009l-.305-.08a1.966 1.966 0 0 1-1.091-.746z"
                style="fill:var(--color2, #10550a)" />
            <path fill="#219717"
                d="m32.918 26.462-.329-.11.592-.582a1.45 1.45 0 0 1 1.018-.416h.408c.313 0 .599.176.74.455l.052.103a.35.35 0 0 1-.182.484l-.245.098a.737.737 0 0 1-.144.041l-.262.047a3.344 3.344 0 0 1-1.649-.119z"
                style="fill:var(--color1, #219717)" />
            <path fill="#10550a"
                d="M27.474 26.075a4.103 4.103 0 0 1-1.303 1.131 1.622 1.622 0 0 1-.085-.966l.052-.237c.075-.342.231-.66.456-.927l.462-.549a.696.696 0 0 1 .565-.247l.065.003a.549.549 0 0 1 .445.828l-.266.447-.388.518z"
                style="fill:var(--color2, #10550a)" />
            <path fill="#219717"
                d="M27.474 26.075a4.103 4.103 0 0 1-1.303 1.131 1.622 1.622 0 0 1-.085-.966l.052-.237c.075-.342.231-.66.456-.927l.462-.549a.696.696 0 0 1 .565-.247l.065.003a.549.549 0 0 1 .445.828l-.266.447-.388.518z"
                style="fill:var(--color1, #219717)" />
            <path fill="#10550a"
                d="M5.713 22.855a1.007 1.007 0 0 1-.591.403l-.727.174-.023-.064.331-.763a.56.56 0 0 1 .383-.321l.326-.078a.354.354 0 0 1 .427.425.348.348 0 0 1-.054.121l-.072.103zM4.066 24.971a.691.691 0 0 1-.007-.344l.277-1.174.082.047.551 1.561a.423.423 0 1 1-.806.255l-.096-.344zM8.816 25.687l-.046-.278c-.069-.423.096-.85.431-1.116l.259-.206a.58.58 0 0 1 .842.774.58.58 0 0 1-.239.205l-.931.429-.315.192zM8.478 26.773a.543.543 0 0 1-.042-.261l.021-.235a.781.781 0 0 1 .359-.59l.033.21c.021.132.063.26.124.379l.259.506a.344.344 0 1 1-.623.293l-.131-.303zM16.084 25.451a5.224 5.224 0 0 1-1.162.695l-.93.404.844-1.284c.198-.301.522-.496.881-.529l.313-.029a.335.335 0 0 1 .238.597l-.184.145zM13.991 26.551l1.388.471a.976.976 0 0 1 .366.225l.196.193a.303.303 0 0 1-.221.518l-.115-.004a.41.41 0 0 1-.204-.062l-.477-.297-.558-.363a.824.824 0 0 1-.375-.682z"
                style="fill:var(--color2, #10550a)" />
            <path fill="#219717"
                d="M17.255 26.498a.16.16 0 0 1-.079-.289l.15-.108a.255.255 0 0 1 .059-.031l.665-.228a.374.374 0 0 1 .32.671l-.113.07a.495.495 0 0 1-.375.062l-.626-.148zM11.462 26.174a.769.769 0 0 1 .289-.98l.616-.384a.993.993 0 0 1 .176-.087l.368-.139a.41.41 0 0 1 .445.105.42.42 0 0 1 .099.186l.006.026a.51.51 0 0 1-.202.532l-.513.363c-.168.119-.36.201-.563.24l-.721.138zM11.779 27.587a1.33 1.33 0 0 1-.316-1.413l.443.435.609.511a.741.741 0 0 1 .189.241l.214.433a.213.213 0 0 1-.079.276.211.211 0 0 1-.191.017l-.398-.157a1.06 1.06 0 0 1-.355-.23l-.116-.114zM6.721 24.156a.54.54 0 0 1 .212-.52l.018-.013a.523.523 0 0 1 .78.202.504.504 0 0 1-.273.689l-.085.033-.545.261-.106-.652zM6.398 26.808a.45.45 0 0 1-.21-.332l-.044-.381a1.245 1.245 0 0 1 .413-1.076l.186-.164.097.023.021.09c.022.095.051.188.087.279l.244.622a.673.673 0 0 1-.053.6l-.117.191a.452.452 0 0 1-.623.147zM23.821 6.841c.332.024.666.017.996-.022l.411-.049h.511l-.202-.213a1.743 1.743 0 0 0-1.256-.538h-.187c-.301 0-.6-.046-.887-.136l-.248-.078a4.648 4.648 0 0 0-1.395-.215h-.194a.135.135 0 0 0-.093.234l.393.372a.376.376 0 0 0 .091.062l.472.223c.405.191.842.306 1.288.339l.301.022zM27.478 4.285a.358.358 0 0 0 .045.031l.511.297c.625.363 1.295.64 1.994.824l.582.153-.727-.644-.908-.644-.157-.099a3.538 3.538 0 0 0-1.886-.545.08.08 0 0 0-.051.143l.597.484zM32.541 8.527a6.594 6.594 0 0 0-2.062.47l-.512.207a.985.985 0 0 0-.161.084l-1.216.796a.122.122 0 0 0 .015.213c.019.009.04.013.061.011l.902-.066a3.588 3.588 0 0 0 1.047-.238l.37-.146a3.408 3.408 0 0 0 1.563-1.249l.059-.087-.066.004z"
                style="fill:var(--color1, #219717)" />
            <path fill="#10550a"
                d="M23.867 4.517a7.608 7.608 0 0 0 2.687.987l.151.025-.269-.345a3.984 3.984 0 0 0-1.17-1.011l-.543-.308a2.288 2.288 0 0 0-.363-.166l-.258-.091a1.46 1.46 0 0 0-.928-.016l-.204.064a.078.078 0 0 1-.022.003.072.072 0 0 0-.068.097l.056.159a.195.195 0 0 0 .083.102l.848.501zM26.209 8.272c-.647 0-1.289.122-1.891.359l-.4.158a.588.588 0 0 0-.097.049l-.433.273a.185.185 0 0 0-.028.291c.034.033.08.051.127.051h1.582c.476 0 .943-.13 1.351-.375l.209-.126c.272-.164.495-.399.643-.679h-1.064zM31.087 4.481c.03.024.062.044.096.061l.552.278a6.715 6.715 0 0 0 2.324.683l.592.062-.57-.527a4.5 4.5 0 0 0-1.273-.827l-.181-.078a2.944 2.944 0 0 0-.748-.211l-1.006-.146a.225.225 0 0 0-.172.4l.385.303z"
                style="fill:var(--color2, #10550a)" />
            <path fill="#219717"
                d="m38.664 26.079.541-.066a1.507 1.507 0 0 1-.083-.465l-.013-.82-.002-.152a4.327 4.327 0 0 0-.28-1.463l-.113.486-.229.725a2.276 2.276 0 0 0-.084.383l-.031.243c-.051.4.055.805.294 1.13z"
                style="fill:var(--color1, #219717)" />
            <path fill="#10550a"
                d="m36.826 26.097.266.569a2.393 2.393 0 0 0 1.586 1.308c.397.1.814.095 1.209-.013l.573-.156.376-.151c.034-.014.024-.064-.012-.064l-.012-.002-.597-.237a2.674 2.674 0 0 0-.988-.189 2.613 2.613 0 0 1-1.456-.439l-.944-.627zM40.689 24.26c.081.374.33.69.675.856l.063.03c.094-.404.138-.817.132-1.232l-.005-.284a6.196 6.196 0 0 0-.081-.902l-.043-.262-.053-.499-.083-.525-.001-.008c-.001-.061-.086-.076-.107-.018l-.26.709-.092.362a4.894 4.894 0 0 0-.146.963l-.024.483c-.006.109.003.219.026.326zM40.46 25.787l.304.216a1.825 1.825 0 0 0 1.946.103l.69-.387.845-.584a.372.372 0 0 0 .09-.087l.392-.522a.071.071 0 0 0-.058-.114l-.01.001-.523.083-.753.163-.513.18a2.17 2.17 0 0 0-.701.406 2.181 2.181 0 0 1-1.35.528l-.359.012z"
                style="fill:var(--color2, #10550a)" />
            <path fill="#219717"
                d="M42.609 23.462c.137.307.47.475.797.404l.567-.123.886-.22a.336.336 0 0 0 .158-.091l.812-.839c.041-.042-.003-.11-.059-.091l-.007.003-.161.084c-.288.15-.601.245-.924.279l-.342.037-.679.087-.076.02a3.149 3.149 0 0 0-.975.451zM43.039 21.042a.894.894 0 0 0 .589.604 2.37 2.37 0 0 1 .154-.878l.129-.337.185-.714.093-.804.138-.755.001-.009c-.001-.044-.058-.06-.082-.023l-.216.335-.254.475a3.1 3.1 0 0 1-.257.404l-.155.206c-.145.192-.25.412-.309.645l-.051.2c-.047.185-.044.379.009.562l.026.089z"
                style="fill:var(--color1, #219717)" />
            <path fill="#10550a"
                d="M44.009 21.245c.096.361.41.622.782.649l.083.006c.085.006.17.002.253-.014l.321-.059c.303-.056.598-.151.877-.283l.405-.192.412-.238c.07-.04.04-.148-.04-.146a6.731 6.731 0 0 1-1.361.035l-.15-.011-.482.008a2.79 2.79 0 0 0-1.101.245zM45.168 19.779l.407-.105c.274-.071.524-.215.722-.417.085-.086.16-.182.223-.286l.146-.24a2.996 2.996 0 0 0 .297-2.464l-.249-.786a.04.04 0 0 0-.01-.018.058.058 0 0 0-.104.029l-.103.816-.072.797a2.064 2.064 0 0 1-.427.957l-.005.006-.4.428a1.96 1.96 0 0 0-.425 1.218v.066zM5.015 11.96l1.581-3.41.353-.555a3.387 3.387 0 0 0-1.583.912l-.051.052a3.718 3.718 0 0 0-.349.413l-.754 1.042a21.15 21.15 0 0 0-1.554 3.336l-.173.476-.291.964a8.27 8.27 0 0 0-.323 3.071l.074.893.007.037c.153.789.401 1.557.741 2.286l.259.436-.04-.166a8.149 8.149 0 0 1-.167-2.948 8.188 8.188 0 0 1 .426-1.765l1.845-5.075z"
                style="fill:var(--color2, #10550a)" />
            <path fill="#219717"
                d="m6.596 8.55-1.581 3.41-1.845 5.075a8.151 8.151 0 0 0-.259 4.713l.04.166a4.215 4.215 0 0 1 .1-1.927l.172-.593 1.234-3.081 1.352-2.468.357-.697a7.966 7.966 0 0 0 .876-3.718l-.008-.833-.085-.6-.353.555z"
                style="fill:var(--color1, #219717)" />
            <path fill="#10550a"
                d="m43.469 11.701-1.616.704a2.503 2.503 0 0 1-.847.204l-.339.021a1.177 1.177 0 0 1-.558-.103l-.082-.038a.941.941 0 0 1-.491-.527l-.012-.033a.736.736 0 0 1 .569-.983l.761-.125a3.185 3.185 0 0 1 2.19.429l.39.239.246.178-.211.035z"
                style="fill:var(--color2, #10550a)" />
            <path fill="#219717"
                d="M40.663 6.44c.115.296.199.603.251.916l.168 1.02a1.906 1.906 0 0 1-1.2-.195l-.216-.114a2.67 2.67 0 0 1-.318-.197l-.586-.425-.487-.414a2.3 2.3 0 0 1-.783-1.383l-.058-.355a1.057 1.057 0 0 1 .033-.487l.032-.103a.83.83 0 0 1 1.176-.49l.39.206c.127.067.246.15.352.247l.197.179c.435.395.772.886.986 1.433l.063.162zM43.823 7.923l-.219.715a.929.929 0 0 0-.028.419l-.615-.446-.03-.027a1.862 1.862 0 0 1-.584-1.074l-.243-1.479a.865.865 0 0 1 .241-.752l.097-.098a.619.619 0 0 1 .94.075l.211.294c.141.196.234.422.273.66l.049.301c.055.337.05.68-.015 1.015l-.078.398zM19.088 5.99c.063-.123.109-.253.136-.388l.112-.553-.197.001c-.25.002-.498.051-.729.146l-.394.161a.753.753 0 0 0-.373.331l-.016.029a.69.69 0 0 0 .703 1.023l.027-.004a.734.734 0 0 0 .548-.391l.182-.355z"
                style="fill:var(--color1, #219717)" />
            <path fill="#10550a"
                d="m16.923 3.377.049-.166a1.46 1.46 0 0 0-.048-.965l-.018-.043a1.262 1.262 0 0 0-.336-.471l-.086-.076a.911.911 0 0 0-.534-.224l-.15-.011a.583.583 0 0 0-.615.69l.004.019a.615.615 0 0 0 .199.347l.451.396c.306.268.682.444 1.084.506zM13.781 5.908c.187-.277.224-.629.098-.939l-.459-.035a1.495 1.495 0 0 0-.503.047l-.222.06a.929.929 0 0 0-.555.42l-.013.022a.805.805 0 0 0-.095.245l-.018.088a.67.67 0 0 0 1.026.692l.436-.289c.115-.076.213-.174.29-.288l.016-.023z"
                style="fill:var(--color2, #10550a)" />
            <path fill="#219717"
                d="m9.891 5.097-.246-.104a1.44 1.44 0 0 0-.648-.109l-.129.008a.88.88 0 0 0-.389.12l-.146.085a.612.612 0 0 0-.301.568l.005.079a.45.45 0 0 0 .197.343c.088.06.195.087.302.075l.286-.032c.211-.023.413-.102.584-.228l.063-.046c.245-.18.399-.458.422-.76z"
                style="fill:var(--color1, #219717)" />
        </symbol>
        <symbol id="catagories-icon1" viewBox="0 0 52 32">
            <path stroke-width="1.231"
                d="M16.32 25.905h19.987m-30.203.25-1.72-1.065a5.753 5.753 0 0 1-1.809-1.779l-.306-.477a2.495 2.495 0 0 1-.386-1.576l.075-.832c.05-.554.16-1.101.328-1.632l.166-.527c.26-.823.602-1.617 1.021-2.371l.579-1.042a4.53 4.53 0 0 1 .689-.933l.094-.098a4.177 4.177 0 0 1 2.887-1.282.464.464 0 0 0 .436-.349l.536-2.098.65-1.775a9.78 9.78 0 0 1 1.277-2.395l.113-.155a8.527 8.527 0 0 1 4.295-3.108l.447-.143a11.35 11.35 0 0 1 2.689-.517l2.235-.155h4.669l4.225.376a4.349 4.349 0 0 1 3.139 1.787l.604.838 1.556 2.437 1.93 2.875a2.764 2.764 0 0 0 2.146 1.285l1.278.089 1.498.308c.826.17 1.639.399 2.431.687l.681.247c.701.254 1.372.582 2.004.978l.723.454c.541.339 1.02.769 1.416 1.27l.133.169a4.716 4.716 0 0 1 1.012 2.912v4.062a2.168 2.168 0 0 1-1.571 2.085l-.483.139-1.121.25m-25.4-8.5h3.798M18.469 6.033l-1.697.378a5.513 5.513 0 0 0-3.701 2.863l-.039.077a5.853 5.853 0 0 0-.603 1.971l-.107.888a.12.12 0 0 0 .12.135l6.028.018m-.001-6.33h9.401l.6.06c.419.042.813.218 1.124.502.137.125.255.268.351.426l1.038 1.699 1.542 2.768a.615.615 0 0 1-.539.915l-13.516-.041m-.001-6.329v6.33m-7.284 7.293c-2.888 0-5.23 2.35-5.23 5.249s2.341 5.249 5.23 5.249c2.888 0 5.23-2.35 5.23-5.249s-2.341-5.249-5.23-5.249zm30.256 0c-2.888 0-5.23 2.35-5.23 5.249s2.341 5.249 5.23 5.249c2.888 0 5.23-2.35 5.23-5.249s-2.341-5.249-5.23-5.249z" />
        </symbol>
        <symbol id="catagories-icon2" viewBox="0 0 52 32">
            <path stroke-linecap="round" stroke-width="1.231"
                d="M13.853 23.888h21.911c.954 0 1.843.485 2.36 1.287m-24.049 2.573h21.737c.928 0 1.795-.461 2.313-1.231M8.421 22.111l-.326-.374a.491.491 0 0 1 .37-.814h28.119c.76 0 1.509.174 2.192.508l.327.16c3.905 1.912 3.498 7.605-.639 8.943a4.852 4.852 0 0 1-1.488.235H8.471a.45.45 0 0 1-.318-.768 5.782 5.782 0 0 0 .269-7.89z" />
            <path stroke-linecap="round" stroke-width="1.231"
                d="M17.546 14.042h21.911c.954 0 1.843.485 2.36 1.287m-24.05 2.573h21.737c.928 0 1.795-.461 2.313-1.231m-29.703-4.406-.326-.374a.491.491 0 0 1 .37-.814h28.119c.76 0 1.509.174 2.192.508l.327.16c3.905 1.912 3.498 7.605-.639 8.943a4.852 4.852 0 0 1-1.488.235H12.164a.45.45 0 0 1-.318-.768 5.782 5.782 0 0 0 .269-7.89z" />
            <path stroke-linecap="round" stroke-width="1.231"
                d="M13.853 4.196h21.911c.954 0 1.843.485 2.36 1.287M14.075 8.056h21.737c.928 0 1.795-.461 2.313-1.231M8.421 2.419l-.326-.374a.491.491 0 0 1 .37-.814h28.119c.76 0 1.509.174 2.192.508l.327.16c3.905 1.912 3.498 7.605-.639 8.943a4.852 4.852 0 0 1-1.488.235H8.471a.45.45 0 0 1-.318-.768 5.782 5.782 0 0 0 .269-7.89z" />
        </symbol>
        <symbol id="catagories-icon3" viewBox="0 0 52 32">
            <path stroke-width="1.231"
                d="m12.346 13.739 10.466 4.063a7.383 7.383 0 0 0 5.333.005l10.871-4.198m-26.67.13-6.004-2.331c-1.084-.421-1.034-1.971.075-2.321l16.845-5.312a7.378 7.378 0 0 1 4.431-.003l16.946 5.315c1.111.349 1.162 1.903.075 2.323l-1.756.678m-30.612 1.651v6.765a5.107 5.107 0 0 0 2.401 4.334l.338.212a6.438 6.438 0 0 0 1.795.773l1.953.508a19.61 19.61 0 0 0 3.336.566l1.112.091a28.41 28.41 0 0 0 10.986-1.26l.48-.154 1.701-.822a4.547 4.547 0 0 0 2.185-2.266 4.537 4.537 0 0 0 .383-1.826v-7.051m-.001.001 3.943-1.523M26.087 9.528l12.945 1.445c1.361.152 2.688.529 3.926 1.114m.001 0a8.203 8.203 0 0 1 .772 3.476v7.358m0 0a3.427 3.427 0 0 0-.79 3.31l.522 1.78c.079.27.461.272.543.002l.532-1.76a3.385 3.385 0 0 0-.807-3.332z" />
        </symbol>
        <symbol id="facebook" viewBox="0 0 32 32">
            <path stroke-linecap="round" stroke-linejoin="round" stroke-width="2.909"
                d="M24.002 2.667h-4a6.67 6.67 0 0 0-6.667 6.667v4h-4v5.333h4v10.667h5.333V18.667h4l1.333-5.333h-5.333v-4A1.335 1.335 0 0 1 20.002 8h4V2.667z" />
        </symbol>
        <symbol id="instagram" viewBox="0 0 32 32">
            <path stroke-linecap="round" stroke-linejoin="round" stroke-width="3.2"
                d="M22.669 2.667H9.336a6.667 6.667 0 0 0-6.667 6.667v13.333a6.667 6.667 0 0 0 6.667 6.667h13.333a6.667 6.667 0 0 0 6.667-6.667V9.334a6.667 6.667 0 0 0-6.667-6.667z" />
            <path stroke-linecap="round" stroke-linejoin="round" stroke-width="3.2"
                d="M21.334 15.16a5.338 5.338 0 0 1-6.123 6.049 5.334 5.334 0 0 1-3.916-7.663c.504-1.002 1.312-1.82 2.308-2.336s2.129-.706 3.239-.542a5.334 5.334 0 0 1 4.493 4.493zM23.331 8.667h.013" />
        </symbol>
        <symbol id="phone" viewBox="0 0 32 32">
            <path stroke-miterlimit="10" stroke-width="1.412"
                d="M27.294 22.622c0 .395-.09.801-.283 1.196s-.441.768-.769 1.119c-.554.592-1.165 1.02-1.855 1.295a5.841 5.841 0 0 1-2.206.417c-1.154 0-2.387-.263-3.687-.801s-2.602-1.262-3.891-2.172a32.245 32.245 0 0 1-3.71-3.072 31.396 31.396 0 0 1-3.156-3.588c-.928-1.251-1.674-2.501-2.217-3.741-.543-1.251-.814-2.447-.814-3.588 0-.746.136-1.459.407-2.117a5.034 5.034 0 0 1 1.301-1.832c.724-.691 1.516-1.031 2.353-1.031.317 0 .633.066.916.197.294.132.554.329.758.614l2.624 3.588c.204.274.351.527.452.768.102.23.158.461.158.669 0 .263-.079.527-.238.779a3.762 3.762 0 0 1-.633.779l-.86.867a.58.58 0 0 0-.181.439c0 .088.011.165.034.252.034.088.068.154.09.219.204.362.554.834 1.052 1.404a37.568 37.568 0 0 0 1.64 1.733 33.88 33.88 0 0 0 1.799 1.613c.588.483 1.075.812 1.459 1.009.057.022.124.055.204.088a.8.8 0 0 0 .283.044.633.633 0 0 0 .464-.187l.86-.823c.283-.274.554-.483.814-.614.26-.154.52-.23.803-.23.215 0 .441.044.69.143s.509.241.792.428l3.744 2.578c.294.197.498.428.622.702.113.274.181.549.181.856z" />
        </symbol>
        <symbol id="twitter" viewBox="0 0 32 32">
            <path stroke-linecap="round" stroke-linejoin="round" stroke-width="3.2"
                d="M30.4 4.813a14.164 14.164 0 0 1-4.111 2.046c-.788-.926-1.836-1.583-3.002-1.881s-2.392-.223-3.515.215c-1.123.438-2.086 1.217-2.761 2.233s-1.028 2.218-1.012 3.446v1.338c-2.301.061-4.58-.46-6.636-1.518S5.54 8.075 4.217 6.151c0 0-5.236 12.038 6.545 17.388a15.004 15.004 0 0 1-9.164 2.675c11.782 6.688 26.182 0 26.182-15.381a6.075 6.075 0 0 0-.105-1.11 10.384 10.384 0 0 0 2.723-4.909z" />
        </symbol>
    </defs>
</svg>